<?xml version="1.0" encoding="utf-8"?>
<!-- Generator: Adobe Illustrator 24.1.0, SVG Export Plug-In . SVG Version: 6.00 Build 0)  -->
<svg version="1.1" id="Layer_1" xmlns="http://www.w3.org/2000/svg" xmlns:xlink="http://www.w3.org/1999/xlink" x="0px" y="0px"
	 viewBox="0 0 176.1 47.5" style="enable-background:new 0 0 176.1 47.5;" xml:space="preserve">
<style type="text/css">
	.st0{fill-rule:evenodd;clip-rule:evenodd;fill:#73EF37;}
	.st1{fill:#FFFFFF;}
</style>
<g id="Layer_2_1_">
	<g id="Layer_1-2">
		<path class="st0" d="M44.5,20.2c-1.6-7,8.3-2.7,1.3-11.1S40.7,11.2,34,7.8S37,0,25.6,0s-1.8,5.1-8.4,7.8s-4.6-7-11.7,1.3
			s2.9,4.3,1.2,11.1s-8.8-1-6.2,9.4s5.4,0.2,10,6s-6.3,5.8,4,10.5s3.8-4,11.2-3.6s0.9,8.2,11.2,3.6s-0.6-5.2,4-10.5s7.4,4.5,10-6
			S46.2,27.1,44.5,20.2z M28.1,39.7c-6.6-0.1-11.8-5.5-11.7-12.1s5.5-11.8,12.1-11.7C35,16,40.2,21.3,40.2,27.8
			C40.2,34.4,34.8,39.8,28.1,39.7C28.1,39.7,28.1,39.7,28.1,39.7z"/>
		<path class="st1" d="M62,19c1.9-0.9,3.9-1.4,6-1.3c5.1,0,7.5,2.3,7.5,7v11.8h-4.3v-2.2c-0.6,1.1-2,2.4-4.8,2.4
			c-3.6,0-5.7-2.4-5.7-5.4c0-3.5,2.6-5.6,7.7-5.6H71v-1.1c0-1.9-0.8-3.1-3.5-3.1c-1.9,0-3.8,0.6-5.5,1.6V19z M68.7,28.6
			c-2.4,0-3.5,1.1-3.5,2.5s0.9,2.3,2.7,2.3c1.6,0.1,3-1,3.1-2.6c0-0.2,0-0.3,0-0.5v-1.8L68.7,28.6z"/>
		<path class="st1" d="M80.6,10.3c1.5,0,2.7,1.1,2.7,2.6s-1.1,2.7-2.6,2.7S78,14.5,78,13c0,0,0-0.1,0-0.1
			C78,11.5,79.1,10.3,80.6,10.3z M78.4,18.1h4.4v18.5h-4.4V18.1z"/>
		<path class="st1" d="M90.2,21.3c0.6-2.1,2.5-3.4,4.7-3.4c0.4,0,0.8,0,1.2,0.1v4.2c-0.6-0.3-1.2-0.4-1.9-0.4c-2.4,0-4,2.2-4,5.1
			v9.5h-4.4V18h4.4L90.2,21.3z"/>
		<path class="st1" d="M111,35.5c-1.7,0.8-3.6,1.3-5.6,1.2c-6,0-9.5-4-9.5-9.4c0-6.1,3.8-9.4,8.4-9.4s7.8,2.8,7.8,8.6
			c0,0.9-0.1,1.8-0.3,2.6h-11.6c0.7,2.7,2.8,4.1,5.8,4.1c1.8,0,3.5-0.5,4.9-1.5V35.5z M108,25.2c-0.1-2.3-1.2-3.9-3.6-3.9
			c-2,0-3.8,1.5-4.2,4.5h7.8V25.2z"/>
		<path class="st1" d="M114.9,10.3h2.2v26.2h-2.2V10.3z"/>
		<path class="st1" d="M119.8,27.4c0-5.3,3.4-9.6,8.5-9.6c5.7,0,8.7,4.3,8.7,9.6s-3.1,9.5-8.7,9.5C123,36.9,119.8,32.7,119.8,27.4z
			 M122.2,27.4c0,3.9,2.4,7.4,6.2,7.4c4.2,0,6.3-3.5,6.3-7.4s-1.8-7.5-6.3-7.5C124.3,19.9,122.2,23.5,122.2,27.4z"/>
		<path class="st1" d="M153.9,18v16.5c0,5.9-3.6,8.4-8.1,8.4c-1.9,0-3.7-0.3-5.4-1.1v-2.2c1.6,0.8,3.4,1.1,5.2,1.1
			c3.5,0,6-1.8,6-6.3v-1.8c-1,2.1-3.2,3.4-5.5,3.4c-4,0-7.7-3.1-7.7-8.8c0-5.5,2.9-9.5,7.5-9.5c2.5-0.1,4.7,1.3,5.8,3.5V18H153.9z
			 M151.7,27.4c0-5.6-3-7.5-5.3-7.5c-3.5,0-5.6,3.1-5.6,7.3c0,4.8,3.1,6.8,5.4,6.8S151.7,32.3,151.7,27.4L151.7,27.4z"/>
		<path class="st1" d="M158.6,11.4c0.9,0,1.6,0.7,1.6,1.5c0,0,0,0,0,0.1c0,0.8-0.7,1.5-1.5,1.5c0,0,0,0,0,0c-0.8,0-1.5-0.6-1.5-1.5
			c0,0,0,0,0-0.1C157.1,12.2,157.7,11.4,158.6,11.4C158.6,11.4,158.6,11.4,158.6,11.4z M157.6,18h2.2v18.5h-2.2V18z"/>
		<path class="st1" d="M172.3,34.8c1.3,0,2.7-0.4,3.8-1.2v2.3c-1.2,0.7-2.6,1.1-4.1,1.1c-6.3,0-9.5-4.7-9.5-9.6s3.4-9.6,9.5-9.6
			c1.4,0,2.8,0.4,4,1V21c-1.2-0.7-2.5-1.1-3.8-1.1c-4-0.1-7.3,3-7.4,7c0,0.2,0,0.3,0,0.5C164.8,31.2,167.2,34.8,172.3,34.8z"/>
	</g>
</g>
</svg>
